<svg xmlns="http://www.w3.org/2000/svg"><symbol fill="none" id="sprite-arrow" viewBox="0 0 80 16"><title>arrow</title><path d="M79.707 8.707a1 1 0 000-1.414L73.343.929a1 1 0 10-1.414 1.414L77.586 8l-5.657 5.657a1 1 0 001.414 1.414l6.364-6.364zM0 9h79V7H0v2z" fill="#fff"/></symbol><symbol fill="none" id="sprite-hamburger" viewBox="0 0 21 15"><title>hamburger</title><g filter="url(#filter0_i)"><rect y="12" width="21" height="3" rx="1" fill="#C4C4C4"/></g><g filter="url(#filter1_i)"><rect y="6" width="21" height="3" rx="1" fill="#C4C4C4"/></g><g filter="url(#filter2_i)"><rect width="21" height="3" rx="1" fill="#C4C4C4"/></g><defs><filter id="filter0_i" x="0" y="12" width="21.5" height="4" filterUnits="userSpaceOnUse" color-interpolation-filters="sRGB"><feFlood flood-opacity="0" result="BackgroundImageFix"/><feBlend in="SourceGraphic" in2="BackgroundImageFix" result="shape"/><feColorMatrix in="SourceAlpha" values="0 0 0 0 0 0 0 0 0 0 0 0 0 0 0 0 0 0 127 0" result="hardAlpha"/><feOffset dx=".5" dy="1"/><feGaussianBlur stdDeviation=".5"/><feComposite in2="hardAlpha" operator="arithmetic" k2="-1" k3="1"/><feColorMatrix values="0 0 0 0 0 0 0 0 0 0 0 0 0 0 0 0 0 0 0.25 0"/><feBlend in2="shape" result="effect1_innerShadow"/></filter><filter id="filter1_i" x="0" y="6" width="21.5" height="4" filterUnits="userSpaceOnUse" color-interpolation-filters="sRGB"><feFlood flood-opacity="0" result="BackgroundImageFix"/><feBlend in="SourceGraphic" in2="BackgroundImageFix" result="shape"/><feColorMatrix in="SourceAlpha" values="0 0 0 0 0 0 0 0 0 0 0 0 0 0 0 0 0 0 127 0" result="hardAlpha"/><feOffset dx=".5" dy="1"/><feGaussianBlur stdDeviation=".5"/><feComposite in2="hardAlpha" operator="arithmetic" k2="-1" k3="1"/><feColorMatrix values="0 0 0 0 0 0 0 0 0 0 0 0 0 0 0 0 0 0 0.25 0"/><feBlend in2="shape" result="effect1_innerShadow"/></filter><filter id="filter2_i" x="0" y="0" width="21.5" height="4" filterUnits="userSpaceOnUse" color-interpolation-filters="sRGB"><feFlood flood-opacity="0" result="BackgroundImageFix"/><feBlend in="SourceGraphic" in2="BackgroundImageFix" result="shape"/><feColorMatrix in="SourceAlpha" values="0 0 0 0 0 0 0 0 0 0 0 0 0 0 0 0 0 0 127 0" result="hardAlpha"/><feOffset dx=".5" dy="1"/><feGaussianBlur stdDeviation=".5"/><feComposite in2="hardAlpha" operator="arithmetic" k2="-1" k3="1"/><feColorMatrix values="0 0 0 0 0 0 0 0 0 0 0 0 0 0 0 0 0 0 0.25 0"/><feBlend in2="shape" result="effect1_innerShadow"/></filter></defs></symbol><symbol fill="currentColor" id="sprite-icon-1" viewBox="0 0 50 56"><title>icon-1</title><path d="M48.336 38.85l-4.305-2.516 3.745-1.017a1.749 1.749 0 001.22-2.144l-.451-1.695a1.727 1.727 0 00-2.12-1.236l-8.753 2.374L29.786 28l7.897-4.616 8.753 2.374c.923.251 1.867-.306 2.12-1.236l.45-1.695c.242-.93-.296-1.893-1.219-2.144l-3.745-1.017 4.305-2.516a1.774 1.774 0 00.637-2.395l-.867-1.52a1.716 1.716 0 00-2.362-.646l-4.305 2.516 1-3.796c.24-.93-.297-1.892-1.22-2.143l-1.67-.449c-.922-.251-1.866.306-2.119 1.236l-2.34 8.86-7.896 4.615v-9.242L33.608 7.7c.67-.678.67-1.794 0-2.472l-1.22-1.236a1.716 1.716 0 00-2.437 0L27.216 6.77V1.75c0-.963-.77-1.75-1.725-1.75h-1.724c-.956 0-1.724.787-1.724 1.75v5.042l-2.735-2.778a1.715 1.715 0 00-2.438 0L15.607 5.25a1.771 1.771 0 000 2.472l6.403 6.486v9.242l-7.897-4.616-2.34-8.859a1.728 1.728 0 00-2.12-1.236l-1.669.448a1.749 1.749 0 00-1.219 2.144l1 3.796-4.306-2.516a1.718 1.718 0 00-2.361.645l-.868 1.52a1.767 1.767 0 00.637 2.396l4.306 2.515-3.746.996a1.749 1.749 0 00-1.219 2.144l.45 1.695a1.728 1.728 0 002.12 1.236l8.754-2.374L19.429 28l-7.897 4.616-8.754-2.374c-.922-.251-1.867.306-2.12 1.236l-.45 1.695c-.241.93.297 1.893 1.22 2.144l3.745 1.017L.867 38.85a1.774 1.774 0 00-.637 2.395l.868 1.52a1.715 1.715 0 002.361.646l4.306-2.516-1 3.796c-.241.93.297 1.892 1.22 2.143l1.669.449c.922.251 1.867-.306 2.12-1.236l2.339-8.86 7.897-4.615v9.242L15.607 48.3a1.771 1.771 0 000 2.472l1.219 1.236c.67.678 1.768.678 2.438 0l2.735-2.778v5.02c0 .962.769 1.75 1.724 1.75h1.725c.955 0 1.724-.788 1.724-1.75v-5.042l2.735 2.778c.67.678 1.768.678 2.438 0l1.219-1.236c.67-.678.67-1.794 0-2.472l-6.403-6.486V32.55l7.897 4.616 2.34 8.859a1.727 1.727 0 002.119 1.236l1.67-.449a1.749 1.749 0 001.218-2.143l-1-3.796 4.306 2.516a1.718 1.718 0 002.362-.645l.867-1.52a1.705 1.705 0 00-.604-2.374z"/><defs><linearGradient id="paint0_linear" x1="24.418" y1="86.435" x2="-12.352" y2="23.809" gradientUnits="userSpaceOnUse"><stop stop-color="#0043A7"/><stop offset="1" stop-color="#6377E3"/></linearGradient></defs></symbol><symbol fill="none" id="sprite-nav-icon" viewBox="0 0 12 6"><title>nav-icon</title><path d="M11 1L6 5 1 1" stroke="currentColor" stroke-width="2" stroke-linecap="round" stroke-linejoin="round"/></symbol></svg>